<svg width="24" height="25" viewBox="0 0 24 25" fill="none" xmlns="http://www.w3.org/2000/svg">
<path d="M4.06734 -5.86552e-08L5.96015e-08 0.0206209L0.011641 2.36683L2.47952 2.35537L6.40717 11.6279L4.97999 13.8733C3.98064 15.4438 5.19579 17.6011 7.07768 17.6011H21.4519V15.2549H7.07768C6.94504 15.2549 6.92975 15.2292 7.00085 15.1175L8.40242 12.9087H17.3054C18.1708 12.9087 18.9695 12.4462 19.3891 11.7013L23.6823 4.09212C24.1245 3.31083 23.5499 2.35079 22.6416 2.35079H5.06147L4.06734 -5.86552e-08ZM7.14753 18.7743C6.51524 18.7743 5.90884 19.0214 5.46174 19.4614C5.01464 19.9014 4.76347 20.4982 4.76347 21.1205C4.76347 21.7427 5.01464 22.3395 5.46174 22.7795C5.90884 23.2195 6.51524 23.4667 7.14753 23.4667C7.77982 23.4667 8.38622 23.2195 8.83331 22.7795C9.28041 22.3395 9.53159 21.7427 9.53159 21.1205C9.53159 20.4982 9.28041 19.9014 8.83331 19.4614C8.38622 19.0214 7.77982 18.7743 7.14753 18.7743ZM19.0678 18.7743C18.4355 18.7743 17.8292 19.0214 17.3821 19.4614C16.935 19.9014 16.6838 20.4982 16.6838 21.1205C16.6838 21.7427 16.935 22.3395 17.3821 22.7795C17.8292 23.2195 18.4355 23.4667 19.0678 23.4667C19.7001 23.4667 20.3065 23.2195 20.7536 22.7795C21.2007 22.3395 21.4519 21.7427 21.4519 21.1205C21.4519 20.4982 21.2007 19.9014 20.7536 19.4614C20.3065 19.0214 19.7001 18.7743 19.0678 18.7743Z" transform="translate(0 0.844421)" fill="#C4C4C4"/>
</svg>
