<svg width="30" height="30" viewBox="0 0 30 30" fill="none" xmlns="http://www.w3.org/2000/svg">
<path fill-rule="evenodd" clip-rule="evenodd" d="M22.4797 25.2083C24.7761 23.6492 26.5033 21.4139 27.4098 18.828C28.3162 16.2421 28.3545 13.4407 27.519 10.8321C26.6836 8.22339 25.0181 5.94372 22.7651 4.32517C20.5121 2.70662 17.7895 1.83376 14.9938 1.83376C12.1981 1.83376 9.47543 2.70662 7.22248 4.32517C4.96952 5.94372 3.30399 8.22339 2.46855 10.8321C1.6331 13.4407 1.67138 16.2421 2.57782 18.828C3.48425 21.4139 5.21148 23.6492 7.50786 25.2083C7.59991 23.7766 8.11907 22.4027 9.00115 21.2564C9.88324 20.1102 11.0896 19.2418 12.471 18.7587C11.07 18.1882 9.91447 17.1607 9.20101 15.851C8.48754 14.5413 8.26022 13.0303 8.55772 11.5752C8.85523 10.1201 9.65918 8.81079 10.8328 7.86997C12.0064 6.92915 13.4771 6.415 14.9947 6.415C16.5123 6.415 17.9831 6.92915 19.1567 7.86997C20.3303 8.81079 21.1342 10.1201 21.4317 11.5752C21.7292 13.0303 21.5019 14.5413 20.7884 15.851C20.075 17.1607 18.9194 18.1882 17.5185 18.7587C18.8998 19.2422 20.1059 20.111 20.9877 21.2576C21.8694 22.4042 22.3882 23.7784 22.4797 25.2102V25.2083ZM22.2585 27.5018C25.4534 25.7745 27.8944 22.9671 29.1238 19.6059C30.3533 16.2447 30.2869 12.5604 28.937 9.2437C27.5871 5.92697 25.0464 3.20546 21.7912 1.5893C18.536 -0.0268698 14.7896 -0.426744 11.2545 0.464627C7.71928 1.356 4.63792 3.47742 2.58795 6.43125C0.537981 9.38509 -0.339859 12.9685 0.118969 16.5099C0.577798 20.0513 2.34179 23.3076 5.08032 25.6683C7.81884 28.029 11.3439 29.3321 14.9947 29.3333C17.5356 29.3349 20.0352 28.7046 22.2585 27.5018ZM20.5841 26.2808C20.6718 25.5119 20.5927 24.7335 20.3517 23.9965C20.1108 23.2595 19.7136 22.5805 19.186 22.0038C18.6584 21.4272 18.0123 20.9659 17.2899 20.6501C16.5675 20.3342 15.7851 20.171 14.9938 20.171C14.2025 20.171 13.4201 20.3342 12.6977 20.6501C11.9753 20.9659 11.3292 21.4272 10.8016 22.0038C10.274 22.5805 9.87674 23.2595 9.63583 23.9965C9.39491 24.7335 9.31574 25.5119 9.40348 26.2808C11.1521 27.0864 13.0617 27.5028 14.9947 27.5C16.9277 27.5028 18.8373 27.0864 20.586 26.2808H20.5841ZM14.9947 8.25001C13.7515 8.25001 12.5592 8.7329 11.6802 9.59244C10.8011 10.452 10.3072 11.6178 10.3072 12.8333C10.3072 14.0489 10.8011 15.2147 11.6802 16.0742C12.5592 16.9338 13.7515 17.4167 14.9947 17.4167C16.2379 17.4167 17.4302 16.9338 18.3093 16.0742C19.1884 15.2147 19.6822 14.0489 19.6822 12.8333C19.6822 11.6178 19.1884 10.452 18.3093 9.59244C17.4302 8.7329 16.2379 8.25001 14.9947 8.25001Z" fill="#C4C4C4"/>
</svg>
