<svg width="14" height="15" viewBox="0 0 14 15" fill="none" xmlns="http://www.w3.org/2000/svg">
<path fill-rule="evenodd" clip-rule="evenodd" d="M8.68958 4.72027C8.68958 6.80568 6.96035 8.49648 4.82754 8.49648C2.69474 8.49648 0.965509 6.80568 0.965509 4.72027C0.965509 2.63485 2.69474 0.944053 4.82754 0.944053C6.96035 0.944053 8.68958 2.63485 8.68958 4.72027ZM9.65509 4.72027C9.65509 7.3268 7.49428 9.44053 4.82754 9.44053C2.16177 9.44053 0 7.3268 0 4.72027C0 2.11279 2.16177 0 4.82754 0C7.49428 0 9.65509 2.11279 9.65509 4.72027ZM9.51412 8.63431C9.32585 8.44928 9.01978 8.44928 8.83054 8.63431C8.64227 8.8184 8.64227 9.11767 8.83054 9.3027L13.1753 13.5509C13.3646 13.735 13.6697 13.735 13.8589 13.55C14.0472 13.3659 14.0472 13.0666 13.8579 12.8825L9.51316 8.63431H9.51412Z" transform="translate(0 0.688904)" fill="#C4C4C4"/>
</svg>
